<svg xmlns="http://www.w3.org/2000/svg" viewBox="0 0 512 512" width="100%" height="100%">
  <defs>
    <linearGradient id="filegraveGrad" x1="0%" y1="0%" x2="100%" y2="100%">
      <stop offset="0%" stop-color="#006E65" />
      <stop offset="45%" stop-color="#004741" />
      <stop offset="100%" stop-color="#002824" />
    </linearGradient>
    <filter id="shadow" x="-10%" y="-10%" width="120%" height="120%">
      <feDropShadow dx="0" dy="16" stdDeviation="20" flood-color="#000000" flood-opacity="0.3" />
    </filter>
  </defs>
  
  <rect x="24" y="24" width="464" height="464" rx="140" ry="140" fill="url(#filegraveGrad)" filter="url(#shadow)" />
  <rect x="24" y="24" width="464" height="464" rx="140" ry="140" fill="none" stroke="rgba(255,255,255,0.2)" stroke-width="6" />

  <g transform="translate(112, 112) scale(12)" fill="none" stroke="#FFFFFF" stroke-width="2.2" stroke-linecap="round" stroke-linejoin="round">
    <path d="m12.83 2.18a2 2 0 0 0-1.66 0L2.6 6.08a1 1 0 0 0 0 1.83l8.58 3.91a2 2 0 0 0 1.66 0l8.58-3.9a1 1 0 0 0 0-1.83Z" />
    <path d="m22 17.65-9.17 4.16a2 2 0 0 1-1.66 0L2 17.65" />
    <path d="m22 12.65-9.17 4.16a2 2 0 0 1-1.66 0L2 12.65" />
  </g>
</svg>
